<svg width="178" height="53" viewBox="0 0 178 53" fill="none" xmlns="http://www.w3.org/2000/svg">
<path d="M10.648 1.8C10.648 2.29067 10.6053 2.71733 10.52 3.08H9.56C9.64533 3.42133 9.688 3.848 9.688 4.36C9.688 4.85067 9.64533 5.27733 9.56 5.64H8.6C8.68533 5.98133 8.728 6.408 8.728 6.92C8.728 7.41067 8.68533 7.83733 8.6 8.2H7.64C7.72533 8.54133 7.768 8.968 7.768 9.48C7.768 9.97067 7.72533 10.3973 7.64 10.76H6.68C6.76533 11.1013 6.808 11.528 6.808 12.04C6.808 12.5307 6.76533 12.9573 6.68 13.32H5.72C5.80533 13.6613 5.848 14.088 5.848 14.6C5.848 15.0907 5.80533 15.5173 5.72 15.88H4.76C4.84533 16.2213 4.888 16.648 4.888 17.16C4.888 17.6507 4.84533 18.0773 4.76 18.44H3.8C3.88533 18.7813 3.928 19.208 3.928 19.72C3.928 20.2107 3.88533 20.6373 3.8 21H2.84C2.92533 21.3413 2.968 21.768 2.968 22.28C2.968 22.7707 2.92533 23.1973 2.84 23.56H0.28C0.194667 23.1973 0.152 22.7707 0.152 22.28C0.152 21.768 0.194667 21.3413 0.28 21H1.24C1.15467 20.6373 1.112 20.2107 1.112 19.72C1.112 19.208 1.15467 18.7813 1.24 18.44H2.2C2.11467 18.0773 2.072 17.6507 2.072 17.16C2.072 16.648 2.11467 16.2213 2.2 15.88H3.16C3.07467 15.5173 3.032 15.0907 3.032 14.6C3.032 14.088 3.07467 13.6613 3.16 13.32H4.12C4.03467 12.9573 3.992 12.5307 3.992 12.04C3.992 11.528 4.03467 11.1013 4.12 10.76H5.08C4.99467 10.3973 4.952 9.97067 4.952 9.48C4.952 8.968 4.99467 8.54133 5.08 8.2H6.04C5.95467 7.83733 5.912 7.41067 5.912 6.92C5.912 6.408 5.95467 5.98133 6.04 5.64H7C6.91467 5.27733 6.872 4.85067 6.872 4.36C6.872 3.848 6.91467 3.42133 7 3.08H7.96C7.87467 2.71733 7.832 2.29067 7.832 1.8C7.832 1.288 7.87467 0.861333 7.96 0.519999H10.52C10.6053 0.861333 10.648 1.288 10.648 1.8ZM23.4605 1.8C23.4605 2.29067 23.4178 2.71733 23.3325 3.08H22.3725C22.4578 3.42133 22.5005 3.848 22.5005 4.36C22.5005 4.85067 22.4578 5.27733 22.3725 5.64H21.4125C21.4978 5.98133 21.5405 6.408 21.5405 6.92C21.5405 7.41067 21.4978 7.83733 21.4125 8.2H20.4525C20.5378 8.54133 20.5805 8.968 20.5805 9.48C20.5805 9.97067 20.5378 10.3973 20.4525 10.76H19.4925C19.5778 11.1013 19.6205 11.528 19.6205 12.04C19.6205 12.5307 19.5778 12.9573 19.4925 13.32H18.5325C18.6178 13.6613 18.6605 14.088 18.6605 14.6C18.6605 15.0907 18.6178 15.5173 18.5325 15.88H17.5725C17.6578 16.2213 17.7005 16.648 17.7005 17.16C17.7005 17.6507 17.6578 18.0773 17.5725 18.44H16.6125C16.6978 18.7813 16.7405 19.208 16.7405 19.72C16.7405 20.2107 16.6978 20.6373 16.6125 21H15.6525C15.7378 21.3413 15.7805 21.768 15.7805 22.28C15.7805 22.7707 15.7378 23.1973 15.6525 23.56H13.0925C13.0072 23.1973 12.9645 22.7707 12.9645 22.28C12.9645 21.768 13.0072 21.3413 13.0925 21H14.0525C13.9672 20.6373 13.9245 20.2107 13.9245 19.72C13.9245 19.208 13.9672 18.7813 14.0525 18.44H15.0125C14.9272 18.0773 14.8845 17.6507 14.8845 17.16C14.8845 16.648 14.9272 16.2213 15.0125 15.88H15.9725C15.8872 15.5173 15.8445 15.0907 15.8445 14.6C15.8445 14.088 15.8872 13.6613 15.9725 13.32H16.9325C16.8472 12.9573 16.8045 12.5307 16.8045 12.04C16.8045 11.528 16.8472 11.1013 16.9325 10.76H17.8925C17.8072 10.3973 17.7645 9.97067 17.7645 9.48C17.7645 8.968 17.8072 8.54133 17.8925 8.2H18.8525C18.7672 7.83733 18.7245 7.41067 18.7245 6.92C18.7245 6.408 18.7672 5.98133 18.8525 5.64H19.8125C19.7272 5.27733 19.6845 4.85067 19.6845 4.36C19.6845 3.848 19.7272 3.42133 19.8125 3.08H20.7725C20.6872 2.71733 20.6445 2.29067 20.6445 1.8C20.6445 1.288 20.6872 0.861333 20.7725 0.519999H23.3325C23.4178 0.861333 23.4605 1.288 23.4605 1.8Z" fill="#F2F2F2"/>
<path d="M49.0855 9.48C49.0855 9.97067 49.0428 10.3973 48.9575 10.76H47.6775C47.7628 11.1013 47.8055 11.528 47.8055 12.04C47.8055 12.5307 47.7628 12.9573 47.6775 13.32H48.9575C49.0428 13.6613 49.0855 14.088 49.0855 14.6C49.0855 15.0907 49.0428 15.5173 48.9575 15.88C49.0428 16.2213 49.0855 16.648 49.0855 17.16C49.0855 17.6507 49.0428 18.0773 48.9575 18.44H47.6775C47.7628 18.7813 47.8055 19.208 47.8055 19.72C47.8055 20.2107 47.7628 20.6373 47.6775 21H38.7175C38.6322 20.6373 38.5895 20.2107 38.5895 19.72C38.5895 19.208 38.6322 18.7813 38.7175 18.44C38.6322 18.0773 38.5895 17.6507 38.5895 17.16C38.5895 16.648 38.6322 16.2213 38.7175 15.88C38.6322 15.5173 38.5895 15.0907 38.5895 14.6C38.5895 14.088 38.6322 13.6613 38.7175 13.32C38.6322 12.9573 38.5895 12.5307 38.5895 12.04C38.5895 11.528 38.6322 11.1013 38.7175 10.76C38.6322 10.3973 38.5895 9.97067 38.5895 9.48C38.5895 8.968 38.6322 8.54133 38.7175 8.2C38.6322 7.83733 38.5895 7.41067 38.5895 6.92C38.5895 6.408 38.6322 5.98133 38.7175 5.64C38.6322 5.27733 38.5895 4.85067 38.5895 4.36C38.5895 3.848 38.6322 3.42133 38.7175 3.08H47.6775C47.7628 3.42133 47.8055 3.848 47.8055 4.36C47.8055 4.85067 47.7628 5.27733 47.6775 5.64H48.9575C49.0428 5.98133 49.0855 6.408 49.0855 6.92C49.0855 7.41067 49.0428 7.83733 48.9575 8.2C49.0428 8.54133 49.0855 8.968 49.0855 9.48ZM46.3975 10.76C46.3122 10.3973 46.2695 9.97067 46.2695 9.48C46.2695 8.968 46.3122 8.54133 46.3975 8.2C46.3122 7.83733 46.2695 7.41067 46.2695 6.92C46.2695 6.408 46.3122 5.98133 46.3975 5.64H41.2775C41.3628 5.98133 41.4055 6.408 41.4055 6.92C41.4055 7.41067 41.3628 7.83733 41.2775 8.2C41.3628 8.54133 41.4055 8.968 41.4055 9.48C41.4055 9.97067 41.3628 10.3973 41.2775 10.76H46.3975ZM46.3975 15.88C46.3122 15.5173 46.2695 15.0907 46.2695 14.6C46.2695 14.088 46.3122 13.6613 46.3975 13.32H41.2775C41.3628 13.6613 41.4055 14.088 41.4055 14.6C41.4055 15.0907 41.3628 15.5173 41.2775 15.88C41.3628 16.2213 41.4055 16.648 41.4055 17.16C41.4055 17.6507 41.3628 18.0773 41.2775 18.44H46.3975C46.3122 18.0773 46.2695 17.6507 46.2695 17.16C46.2695 16.648 46.3122 16.2213 46.3975 15.88ZM61.77 18.44C61.8553 18.7813 61.898 19.208 61.898 19.72C61.898 20.2107 61.8553 20.6373 61.77 21H59.21C59.1247 20.6373 59.082 20.2107 59.082 19.72C59.082 19.208 59.1247 18.7813 59.21 18.44H58.25C58.1647 18.0773 58.122 17.6507 58.122 17.16C58.122 16.648 58.1647 16.2213 58.25 15.88H57.29C57.2047 15.5173 57.162 15.0907 57.162 14.6C57.162 14.088 57.2047 13.6613 57.29 13.32H54.09C54.1753 13.6613 54.218 14.088 54.218 14.6C54.218 15.0907 54.1753 15.5173 54.09 15.88C54.1753 16.2213 54.218 16.648 54.218 17.16C54.218 17.6507 54.1753 18.0773 54.09 18.44C54.1753 18.7813 54.218 19.208 54.218 19.72C54.218 20.2107 54.1753 20.6373 54.09 21H51.53C51.4447 20.6373 51.402 20.2107 51.402 19.72C51.402 19.208 51.4447 18.7813 51.53 18.44C51.4447 18.0773 51.402 17.6507 51.402 17.16C51.402 16.648 51.4447 16.2213 51.53 15.88C51.4447 15.5173 51.402 15.0907 51.402 14.6C51.402 14.088 51.4447 13.6613 51.53 13.32C51.4447 12.9573 51.402 12.5307 51.402 12.04C51.402 11.528 51.4447 11.1013 51.53 10.76C51.4447 10.3973 51.402 9.97067 51.402 9.48C51.402 8.968 51.4447 8.54133 51.53 8.2C51.4447 7.83733 51.402 7.41067 51.402 6.92C51.402 6.408 51.4447 5.98133 51.53 5.64C51.4447 5.27733 51.402 4.85067 51.402 4.36C51.402 3.848 51.4447 3.42133 51.53 3.08H60.49C60.5753 3.42133 60.618 3.848 60.618 4.36C60.618 4.85067 60.5753 5.27733 60.49 5.64H61.77C61.8553 5.98133 61.898 6.408 61.898 6.92C61.898 7.41067 61.8553 7.83733 61.77 8.2H61.13C61.2153 8.54133 61.258 8.968 61.258 9.48C61.258 9.97067 61.2153 10.3973 61.13 10.76H59.21C59.2953 11.1013 59.338 11.528 59.338 12.04C59.338 12.5307 59.2953 12.9573 59.21 13.32H59.85C59.9353 13.6613 59.978 14.088 59.978 14.6C59.978 15.0907 59.9353 15.5173 59.85 15.88H60.81C60.8953 16.2213 60.938 16.648 60.938 17.16C60.938 17.6507 60.8953 18.0773 60.81 18.44H61.77ZM58.57 10.76C58.4847 10.3973 58.442 9.97067 58.442 9.48C58.442 8.968 58.4847 8.54133 58.57 8.2C58.4847 7.83733 58.442 7.41067 58.442 6.92C58.442 6.408 58.4847 5.98133 58.57 5.64H54.09C54.1753 5.98133 54.218 6.408 54.218 6.92C54.218 7.41067 54.1753 7.83733 54.09 8.2C54.1753 8.54133 54.218 8.968 54.218 9.48C54.218 9.97067 54.1753 10.3973 54.09 10.76H58.57ZM68.1825 13.32C68.2678 13.6613 68.3105 14.088 68.3105 14.6C68.3105 15.0907 68.2678 15.5173 68.1825 15.88C68.2678 16.2213 68.3105 16.648 68.3105 17.16C68.3105 17.6507 68.2678 18.0773 68.1825 18.44H73.3025C73.3878 18.7813 73.4305 19.208 73.4305 19.72C73.4305 20.2107 73.3878 20.6373 73.3025 21H65.6225C65.5372 20.6373 65.4945 20.2107 65.4945 19.72C65.4945 19.208 65.5372 18.7813 65.6225 18.44C65.5372 18.0773 65.4945 17.6507 65.4945 17.16C65.4945 16.648 65.5372 16.2213 65.6225 15.88C65.5372 15.5173 65.4945 15.0907 65.4945 14.6C65.4945 14.088 65.5372 13.6613 65.6225 13.32C65.5372 12.9573 65.4945 12.5307 65.4945 12.04C65.4945 11.528 65.5372 11.1013 65.6225 10.76C65.5372 10.3973 65.4945 9.97067 65.4945 9.48C65.4945 8.968 65.5372 8.54133 65.6225 8.2C65.5372 7.83733 65.4945 7.41067 65.4945 6.92C65.4945 6.408 65.5372 5.98133 65.6225 5.64C65.5372 5.27733 65.4945 4.85067 65.4945 4.36C65.4945 3.848 65.5372 3.42133 65.6225 3.08H73.3025C73.3878 3.42133 73.4305 3.848 73.4305 4.36C73.4305 4.85067 73.3878 5.27733 73.3025 5.64H68.1825C68.2678 5.98133 68.3105 6.408 68.3105 6.92C68.3105 7.41067 68.2678 7.83733 68.1825 8.2C68.2678 8.54133 68.3105 8.968 68.3105 9.48C68.3105 9.97067 68.2678 10.3973 68.1825 10.76H73.3025C73.3878 11.1013 73.4305 11.528 73.4305 12.04C73.4305 12.5307 73.3878 12.9573 73.3025 13.32H68.1825ZM87.523 17.16C87.523 17.6507 87.4803 18.0773 87.395 18.44C87.4803 18.7813 87.523 19.208 87.523 19.72C87.523 20.2107 87.4803 20.6373 87.395 21H84.835C84.7497 20.6373 84.707 20.2107 84.707 19.72C84.707 19.208 84.7497 18.7813 84.835 18.44C84.7497 18.0773 84.707 17.6507 84.707 17.16C84.707 16.648 84.7497 16.2213 84.835 15.88H79.715C79.8003 16.2213 79.843 16.648 79.843 17.16C79.843 17.6507 79.8003 18.0773 79.715 18.44C79.8003 18.7813 79.843 19.208 79.843 19.72C79.843 20.2107 79.8003 20.6373 79.715 21H77.155C77.0697 20.6373 77.027 20.2107 77.027 19.72C77.027 19.208 77.0697 18.7813 77.155 18.44C77.0697 18.0773 77.027 17.6507 77.027 17.16C77.027 16.648 77.0697 16.2213 77.155 15.88H78.115C78.0297 15.5173 77.987 15.0907 77.987 14.6C77.987 14.088 78.0297 13.6613 78.115 13.32C78.0297 12.9573 77.987 12.5307 77.987 12.04C77.987 11.528 78.0297 11.1013 78.115 10.76H78.755C78.6697 10.3973 78.627 9.97067 78.627 9.48C78.627 8.968 78.6697 8.54133 78.755 8.2H79.715C79.6297 7.83733 79.587 7.41067 79.587 6.92C79.587 6.408 79.6297 5.98133 79.715 5.64H80.355C80.2697 5.27733 80.227 4.85067 80.227 4.36C80.227 3.848 80.2697 3.42133 80.355 3.08H84.195C84.2803 3.42133 84.323 3.848 84.323 4.36C84.323 4.85067 84.2803 5.27733 84.195 5.64H84.835C84.9203 5.98133 84.963 6.408 84.963 6.92C84.963 7.41067 84.9203 7.83733 84.835 8.2H85.795C85.8803 8.54133 85.923 8.968 85.923 9.48C85.923 9.97067 85.8803 10.3973 85.795 10.76H86.435C86.5203 11.1013 86.563 11.528 86.563 12.04C86.563 12.5307 86.5203 12.9573 86.435 13.32C86.5203 13.6613 86.563 14.088 86.563 14.6C86.563 15.0907 86.5203 15.5173 86.435 15.88H87.395C87.4803 16.2213 87.523 16.648 87.523 17.16ZM83.875 13.32C83.7897 12.9573 83.747 12.5307 83.747 12.04C83.747 11.528 83.7897 11.1013 83.875 10.76H83.235C83.1497 10.3973 83.107 9.97067 83.107 9.48C83.107 8.968 83.1497 8.54133 83.235 8.2H81.315C81.4003 8.54133 81.443 8.968 81.443 9.48C81.443 9.97067 81.4003 10.3973 81.315 10.76H80.675C80.7603 11.1013 80.803 11.528 80.803 12.04C80.803 12.5307 80.7603 12.9573 80.675 13.32H83.875ZM100.208 10.76C100.293 11.1013 100.336 11.528 100.336 12.04C100.336 12.5307 100.293 12.9573 100.208 13.32C100.293 13.6613 100.336 14.088 100.336 14.6C100.336 15.0907 100.293 15.5173 100.208 15.88H98.9275C99.0128 16.2213 99.0555 16.648 99.0555 17.16C99.0555 17.6507 99.0128 18.0773 98.9275 18.44H97.6475C97.7328 18.7813 97.7755 19.208 97.7755 19.72C97.7755 20.2107 97.7328 20.6373 97.6475 21H89.9675C89.8822 20.6373 89.8395 20.2107 89.8395 19.72C89.8395 19.208 89.8822 18.7813 89.9675 18.44C89.8822 18.0773 89.8395 17.6507 89.8395 17.16C89.8395 16.648 89.8822 16.2213 89.9675 15.88C89.8822 15.5173 89.8395 15.0907 89.8395 14.6C89.8395 14.088 89.8822 13.6613 89.9675 13.32C89.8822 12.9573 89.8395 12.5307 89.8395 12.04C89.8395 11.528 89.8822 11.1013 89.9675 10.76C89.8822 10.3973 89.8395 9.97067 89.8395 9.48C89.8395 8.968 89.8822 8.54133 89.9675 8.2C89.8822 7.83733 89.8395 7.41067 89.8395 6.92C89.8395 6.408 89.8822 5.98133 89.9675 5.64C89.8822 5.27733 89.8395 4.85067 89.8395 4.36C89.8395 3.848 89.8822 3.42133 89.9675 3.08H97.6475C97.7328 3.42133 97.7755 3.848 97.7755 4.36C97.7755 4.85067 97.7328 5.27733 97.6475 5.64H98.9275C99.0128 5.98133 99.0555 6.408 99.0555 6.92C99.0555 7.41067 99.0128 7.83733 98.9275 8.2H100.208C100.293 8.54133 100.336 8.968 100.336 9.48C100.336 9.97067 100.293 10.3973 100.208 10.76ZM97.6475 15.88C97.5622 15.5173 97.5195 15.0907 97.5195 14.6C97.5195 14.088 97.5622 13.6613 97.6475 13.32C97.5622 12.9573 97.5195 12.5307 97.5195 12.04C97.5195 11.528 97.5622 11.1013 97.6475 10.76C97.5622 10.3973 97.5195 9.97067 97.5195 9.48C97.5195 8.968 97.5622 8.54133 97.6475 8.2H96.3675C96.2822 7.83733 96.2395 7.41067 96.2395 6.92C96.2395 6.408 96.2822 5.98133 96.3675 5.64H92.5275C92.6128 5.98133 92.6555 6.408 92.6555 6.92C92.6555 7.41067 92.6128 7.83733 92.5275 8.2C92.6128 8.54133 92.6555 8.968 92.6555 9.48C92.6555 9.97067 92.6128 10.3973 92.5275 10.76C92.6128 11.1013 92.6555 11.528 92.6555 12.04C92.6555 12.5307 92.6128 12.9573 92.5275 13.32C92.6128 13.6613 92.6555 14.088 92.6555 14.6C92.6555 15.0907 92.6128 15.5173 92.5275 15.88C92.6128 16.2213 92.6555 16.648 92.6555 17.16C92.6555 17.6507 92.6128 18.0773 92.5275 18.44H96.3675C96.2822 18.0773 96.2395 17.6507 96.2395 17.16C96.2395 16.648 96.2822 16.2213 96.3675 15.88H97.6475ZM111.1 18.44C111.185 18.7813 111.228 19.208 111.228 19.72C111.228 20.2107 111.185 20.6373 111.1 21H104.7C104.615 20.6373 104.572 20.2107 104.572 19.72C104.572 19.208 104.615 18.7813 104.7 18.44H106.62C106.535 18.0773 106.492 17.6507 106.492 17.16C106.492 16.648 106.535 16.2213 106.62 15.88C106.535 15.5173 106.492 15.0907 106.492 14.6C106.492 14.088 106.535 13.6613 106.62 13.32C106.535 12.9573 106.492 12.5307 106.492 12.04C106.492 11.528 106.535 11.1013 106.62 10.76C106.535 10.3973 106.492 9.97067 106.492 9.48C106.492 8.968 106.535 8.54133 106.62 8.2C106.535 7.83733 106.492 7.41067 106.492 6.92C106.492 6.408 106.535 5.98133 106.62 5.64H104.7C104.615 5.27733 104.572 4.85067 104.572 4.36C104.572 3.848 104.615 3.42133 104.7 3.08H111.1C111.185 3.42133 111.228 3.848 111.228 4.36C111.228 4.85067 111.185 5.27733 111.1 5.64H109.18C109.265 5.98133 109.308 6.408 109.308 6.92C109.308 7.41067 109.265 7.83733 109.18 8.2C109.265 8.54133 109.308 8.968 109.308 9.48C109.308 9.97067 109.265 10.3973 109.18 10.76C109.265 11.1013 109.308 11.528 109.308 12.04C109.308 12.5307 109.265 12.9573 109.18 13.32C109.265 13.6613 109.308 14.088 109.308 14.6C109.308 15.0907 109.265 15.5173 109.18 15.88C109.265 16.2213 109.308 16.648 109.308 17.16C109.308 17.6507 109.265 18.0773 109.18 18.44H111.1ZM125.833 13.32C125.918 13.6613 125.961 14.088 125.961 14.6C125.961 15.0907 125.918 15.5173 125.833 15.88C125.918 16.2213 125.961 16.648 125.961 17.16C125.961 17.6507 125.918 18.0773 125.833 18.44H124.553C124.638 18.7813 124.681 19.208 124.681 19.72C124.681 20.2107 124.638 20.6373 124.553 21H116.873C116.787 20.6373 116.745 20.2107 116.745 19.72C116.745 19.208 116.787 18.7813 116.873 18.44H115.593C115.507 18.0773 115.465 17.6507 115.465 17.16C115.465 16.648 115.507 16.2213 115.593 15.88H118.153C118.238 16.2213 118.281 16.648 118.281 17.16C118.281 17.6507 118.238 18.0773 118.153 18.44H123.273C123.187 18.0773 123.145 17.6507 123.145 17.16C123.145 16.648 123.187 16.2213 123.273 15.88C123.187 15.5173 123.145 15.0907 123.145 14.6C123.145 14.088 123.187 13.6613 123.273 13.32H116.873C116.787 12.9573 116.745 12.5307 116.745 12.04C116.745 11.528 116.787 11.1013 116.873 10.76H115.593C115.507 10.3973 115.465 9.97067 115.465 9.48C115.465 8.968 115.507 8.54133 115.593 8.2C115.507 7.83733 115.465 7.41067 115.465 6.92C115.465 6.408 115.507 5.98133 115.593 5.64H116.873C116.787 5.27733 116.745 4.85067 116.745 4.36C116.745 3.848 116.787 3.42133 116.873 3.08H124.553C124.638 3.42133 124.681 3.848 124.681 4.36C124.681 4.85067 124.638 5.27733 124.553 5.64H125.833C125.918 5.98133 125.961 6.408 125.961 6.92C125.961 7.41067 125.918 7.83733 125.833 8.2H123.273C123.187 7.83733 123.145 7.41067 123.145 6.92C123.145 6.408 123.187 5.98133 123.273 5.64H118.153C118.238 5.98133 118.281 6.408 118.281 6.92C118.281 7.41067 118.238 7.83733 118.153 8.2C118.238 8.54133 118.281 8.968 118.281 9.48C118.281 9.97067 118.238 10.3973 118.153 10.76H124.553C124.638 11.1013 124.681 11.528 124.681 12.04C124.681 12.5307 124.638 12.9573 124.553 13.32H125.833ZM138.773 9.48C138.773 9.97067 138.73 10.3973 138.645 10.76H137.365C137.45 11.1013 137.493 11.528 137.493 12.04C137.493 12.5307 137.45 12.9573 137.365 13.32H138.645C138.73 13.6613 138.773 14.088 138.773 14.6C138.773 15.0907 138.73 15.5173 138.645 15.88C138.73 16.2213 138.773 16.648 138.773 17.16C138.773 17.6507 138.73 18.0773 138.645 18.44H137.365C137.45 18.7813 137.493 19.208 137.493 19.72C137.493 20.2107 137.45 20.6373 137.365 21H128.405C128.32 20.6373 128.277 20.2107 128.277 19.72C128.277 19.208 128.32 18.7813 128.405 18.44C128.32 18.0773 128.277 17.6507 128.277 17.16C128.277 16.648 128.32 16.2213 128.405 15.88C128.32 15.5173 128.277 15.0907 128.277 14.6C128.277 14.088 128.32 13.6613 128.405 13.32C128.32 12.9573 128.277 12.5307 128.277 12.04C128.277 11.528 128.32 11.1013 128.405 10.76C128.32 10.3973 128.277 9.97067 128.277 9.48C128.277 8.968 128.32 8.54133 128.405 8.2C128.32 7.83733 128.277 7.41067 128.277 6.92C128.277 6.408 128.32 5.98133 128.405 5.64C128.32 5.27733 128.277 4.85067 128.277 4.36C128.277 3.848 128.32 3.42133 128.405 3.08H137.365C137.45 3.42133 137.493 3.848 137.493 4.36C137.493 4.85067 137.45 5.27733 137.365 5.64H138.645C138.73 5.98133 138.773 6.408 138.773 6.92C138.773 7.41067 138.73 7.83733 138.645 8.2C138.73 8.54133 138.773 8.968 138.773 9.48ZM136.085 10.76C136 10.3973 135.957 9.97067 135.957 9.48C135.957 8.968 136 8.54133 136.085 8.2C136 7.83733 135.957 7.41067 135.957 6.92C135.957 6.408 136 5.98133 136.085 5.64H130.965C131.05 5.98133 131.093 6.408 131.093 6.92C131.093 7.41067 131.05 7.83733 130.965 8.2C131.05 8.54133 131.093 8.968 131.093 9.48C131.093 9.97067 131.05 10.3973 130.965 10.76H136.085ZM136.085 15.88C136 15.5173 135.957 15.0907 135.957 14.6C135.957 14.088 136 13.6613 136.085 13.32H130.965C131.05 13.6613 131.093 14.088 131.093 14.6C131.093 15.0907 131.05 15.5173 130.965 15.88C131.05 16.2213 131.093 16.648 131.093 17.16C131.093 17.6507 131.05 18.0773 130.965 18.44H136.085C136 18.0773 135.957 17.6507 135.957 17.16C135.957 16.648 136 16.2213 136.085 15.88ZM151.586 17.16C151.586 17.6507 151.543 18.0773 151.458 18.44C151.543 18.7813 151.586 19.208 151.586 19.72C151.586 20.2107 151.543 20.6373 151.458 21H148.898C148.812 20.6373 148.77 20.2107 148.77 19.72C148.77 19.208 148.812 18.7813 148.898 18.44C148.812 18.0773 148.77 17.6507 148.77 17.16C148.77 16.648 148.812 16.2213 148.898 15.88H143.778C143.863 16.2213 143.906 16.648 143.906 17.16C143.906 17.6507 143.863 18.0773 143.778 18.44C143.863 18.7813 143.906 19.208 143.906 19.72C143.906 20.2107 143.863 20.6373 143.778 21H141.218C141.132 20.6373 141.09 20.2107 141.09 19.72C141.09 19.208 141.132 18.7813 141.218 18.44C141.132 18.0773 141.09 17.6507 141.09 17.16C141.09 16.648 141.132 16.2213 141.218 15.88H142.178C142.092 15.5173 142.049 15.0907 142.049 14.6C142.049 14.088 142.092 13.6613 142.178 13.32C142.092 12.9573 142.049 12.5307 142.049 12.04C142.049 11.528 142.092 11.1013 142.178 10.76H142.818C142.732 10.3973 142.69 9.97067 142.69 9.48C142.69 8.968 142.732 8.54133 142.818 8.2H143.778C143.692 7.83733 143.65 7.41067 143.65 6.92C143.65 6.408 143.692 5.98133 143.778 5.64H144.418C144.332 5.27733 144.29 4.85067 144.29 4.36C144.29 3.848 144.332 3.42133 144.418 3.08H148.258C148.343 3.42133 148.385 3.848 148.385 4.36C148.385 4.85067 148.343 5.27733 148.258 5.64H148.898C148.983 5.98133 149.026 6.408 149.026 6.92C149.026 7.41067 148.983 7.83733 148.898 8.2H149.858C149.943 8.54133 149.986 8.968 149.986 9.48C149.986 9.97067 149.943 10.3973 149.858 10.76H150.498C150.583 11.1013 150.626 11.528 150.626 12.04C150.626 12.5307 150.583 12.9573 150.498 13.32C150.583 13.6613 150.626 14.088 150.626 14.6C150.626 15.0907 150.583 15.5173 150.498 15.88H151.458C151.543 16.2213 151.586 16.648 151.586 17.16ZM147.938 13.32C147.852 12.9573 147.81 12.5307 147.81 12.04C147.81 11.528 147.852 11.1013 147.938 10.76H147.298C147.212 10.3973 147.17 9.97067 147.17 9.48C147.17 8.968 147.212 8.54133 147.298 8.2H145.378C145.463 8.54133 145.506 8.968 145.506 9.48C145.506 9.97067 145.463 10.3973 145.378 10.76H144.738C144.823 11.1013 144.866 11.528 144.866 12.04C144.866 12.5307 144.823 12.9573 144.738 13.32H147.938ZM164.27 15.88C164.355 16.2213 164.398 16.648 164.398 17.16C164.398 17.6507 164.355 18.0773 164.27 18.44H162.99C163.075 18.7813 163.118 19.208 163.118 19.72C163.118 20.2107 163.075 20.6373 162.99 21H156.59C156.505 20.6373 156.462 20.2107 156.462 19.72C156.462 19.208 156.505 18.7813 156.59 18.44H155.31C155.225 18.0773 155.182 17.6507 155.182 17.16C155.182 16.648 155.225 16.2213 155.31 15.88H154.03C153.945 15.5173 153.902 15.0907 153.902 14.6C153.902 14.088 153.945 13.6613 154.03 13.32C153.945 12.9573 153.902 12.5307 153.902 12.04C153.902 11.528 153.945 11.1013 154.03 10.76C153.945 10.3973 153.902 9.97067 153.902 9.48C153.902 8.968 153.945 8.54133 154.03 8.2H155.31C155.225 7.83733 155.182 7.41067 155.182 6.92C155.182 6.408 155.225 5.98133 155.31 5.64H156.59C156.505 5.27733 156.462 4.85067 156.462 4.36C156.462 3.848 156.505 3.42133 156.59 3.08H162.99C163.075 3.42133 163.118 3.848 163.118 4.36C163.118 4.85067 163.075 5.27733 162.99 5.64H164.27C164.355 5.98133 164.398 6.408 164.398 6.92C164.398 7.41067 164.355 7.83733 164.27 8.2H161.71C161.625 7.83733 161.582 7.41067 161.582 6.92C161.582 6.408 161.625 5.98133 161.71 5.64H157.87C157.955 5.98133 157.998 6.408 157.998 6.92C157.998 7.41067 157.955 7.83733 157.87 8.2H156.59C156.675 8.54133 156.718 8.968 156.718 9.48C156.718 9.97067 156.675 10.3973 156.59 10.76C156.675 11.1013 156.718 11.528 156.718 12.04C156.718 12.5307 156.675 12.9573 156.59 13.32C156.675 13.6613 156.718 14.088 156.718 14.6C156.718 15.0907 156.675 15.5173 156.59 15.88H157.87C157.955 16.2213 157.998 16.648 157.998 17.16C157.998 17.6507 157.955 18.0773 157.87 18.44H161.71C161.625 18.0773 161.582 17.6507 161.582 17.16C161.582 16.648 161.625 16.2213 161.71 15.88H164.27ZM177.083 18.44C177.168 18.7813 177.211 19.208 177.211 19.72C177.211 20.2107 177.168 20.6373 177.083 21H174.523C174.437 20.6373 174.395 20.2107 174.395 19.72C174.395 19.208 174.437 18.7813 174.523 18.44H173.562C173.477 18.0773 173.435 17.6507 173.435 17.16C173.435 16.648 173.477 16.2213 173.562 15.88H171.643C171.557 15.5173 171.515 15.0907 171.515 14.6C171.515 14.088 171.557 13.6613 171.643 13.32H169.403C169.488 13.6613 169.531 14.088 169.531 14.6C169.531 15.0907 169.488 15.5173 169.403 15.88C169.488 16.2213 169.531 16.648 169.531 17.16C169.531 17.6507 169.488 18.0773 169.403 18.44C169.488 18.7813 169.531 19.208 169.531 19.72C169.531 20.2107 169.488 20.6373 169.403 21H166.843C166.757 20.6373 166.715 20.2107 166.715 19.72C166.715 19.208 166.757 18.7813 166.843 18.44C166.757 18.0773 166.715 17.6507 166.715 17.16C166.715 16.648 166.757 16.2213 166.843 15.88C166.757 15.5173 166.715 15.0907 166.715 14.6C166.715 14.088 166.757 13.6613 166.843 13.32C166.757 12.9573 166.715 12.5307 166.715 12.04C166.715 11.528 166.757 11.1013 166.843 10.76C166.757 10.3973 166.715 9.97067 166.715 9.48C166.715 8.968 166.757 8.54133 166.843 8.2C166.757 7.83733 166.715 7.41067 166.715 6.92C166.715 6.408 166.757 5.98133 166.843 5.64C166.757 5.27733 166.715 4.85067 166.715 4.36C166.715 3.848 166.757 3.42133 166.843 3.08H169.403C169.488 3.42133 169.531 3.848 169.531 4.36C169.531 4.85067 169.488 5.27733 169.403 5.64C169.488 5.98133 169.531 6.408 169.531 6.92C169.531 7.41067 169.488 7.83733 169.403 8.2C169.488 8.54133 169.531 8.968 169.531 9.48C169.531 9.97067 169.488 10.3973 169.403 10.76H171.643C171.557 10.3973 171.515 9.97067 171.515 9.48C171.515 8.968 171.557 8.54133 171.643 8.2H173.562C173.477 7.83733 173.435 7.41067 173.435 6.92C173.435 6.408 173.477 5.98133 173.562 5.64H174.523C174.437 5.27733 174.395 4.85067 174.395 4.36C174.395 3.848 174.437 3.42133 174.523 3.08H177.083C177.168 3.42133 177.211 3.848 177.211 4.36C177.211 4.85067 177.168 5.27733 177.083 5.64H176.123C176.208 5.98133 176.251 6.408 176.251 6.92C176.251 7.41067 176.208 7.83733 176.123 8.2H174.203C174.288 8.54133 174.331 8.968 174.331 9.48C174.331 9.97067 174.288 10.3973 174.203 10.76H172.603C172.688 11.1013 172.731 11.528 172.731 12.04C172.731 12.5307 172.688 12.9573 172.603 13.32H174.203C174.288 13.6613 174.331 14.088 174.331 14.6C174.331 15.0907 174.288 15.5173 174.203 15.88H176.123C176.208 16.2213 176.251 16.648 176.251 17.16C176.251 17.6507 176.208 18.0773 176.123 18.44H177.083Z" fill="#828282"/>
<path d="M48.9575 37.64C49.0428 37.9813 49.0855 38.408 49.0855 38.92C49.0855 39.4107 49.0428 39.8373 48.9575 40.2C49.0428 40.5413 49.0855 40.968 49.0855 41.48C49.0855 41.9707 49.0428 42.3973 48.9575 42.76C49.0428 43.1013 49.0855 43.528 49.0855 44.04C49.0855 44.5307 49.0428 44.9573 48.9575 45.32H47.9975C48.0828 45.6613 48.1255 46.088 48.1255 46.6C48.1255 47.0907 48.0828 47.5173 47.9975 47.88C48.0828 48.2213 48.1255 48.648 48.1255 49.16C48.1255 49.6507 48.0828 50.0773 47.9975 50.44H47.3575C47.4428 50.7813 47.4855 51.208 47.4855 51.72C47.4855 52.2107 47.4428 52.6373 47.3575 53H45.4375C45.3522 52.6373 45.3095 52.2107 45.3095 51.72C45.3095 51.208 45.3522 50.7813 45.4375 50.44H44.7975C44.7122 50.0773 44.6695 49.6507 44.6695 49.16C44.6695 48.648 44.7122 48.2213 44.7975 47.88H42.8775C42.9628 48.2213 43.0055 48.648 43.0055 49.16C43.0055 49.6507 42.9628 50.0773 42.8775 50.44H42.2375C42.3228 50.7813 42.3655 51.208 42.3655 51.72C42.3655 52.2107 42.3228 52.6373 42.2375 53H40.3175C40.2322 52.6373 40.1895 52.2107 40.1895 51.72C40.1895 51.208 40.2322 50.7813 40.3175 50.44H39.6775C39.5922 50.0773 39.5495 49.6507 39.5495 49.16C39.5495 48.648 39.5922 48.2213 39.6775 47.88C39.5922 47.5173 39.5495 47.0907 39.5495 46.6C39.5495 46.088 39.5922 45.6613 39.6775 45.32H38.7175C38.6322 44.9573 38.5895 44.5307 38.5895 44.04C38.5895 43.528 38.6322 43.1013 38.7175 42.76C38.6322 42.3973 38.5895 41.9707 38.5895 41.48C38.5895 40.968 38.6322 40.5413 38.7175 40.2C38.6322 39.8373 38.5895 39.4107 38.5895 38.92C38.5895 38.408 38.6322 37.9813 38.7175 37.64C38.6322 37.2773 38.5895 36.8507 38.5895 36.36C38.5895 35.848 38.6322 35.4213 38.7175 35.08H41.2775C41.3628 35.4213 41.4055 35.848 41.4055 36.36C41.4055 36.8507 41.3628 37.2773 41.2775 37.64C41.3628 37.9813 41.4055 38.408 41.4055 38.92C41.4055 39.4107 41.3628 39.8373 41.2775 40.2C41.3628 40.5413 41.4055 40.968 41.4055 41.48C41.4055 41.9707 41.3628 42.3973 41.2775 42.76C41.3628 43.1013 41.4055 43.528 41.4055 44.04C41.4055 44.5307 41.3628 44.9573 41.2775 45.32C41.3628 45.6613 41.4055 46.088 41.4055 46.6C41.4055 47.0907 41.3628 47.5173 41.2775 47.88H42.2375C42.1522 47.5173 42.1095 47.0907 42.1095 46.6C42.1095 46.088 42.1522 45.6613 42.2375 45.32H42.8775C42.7922 44.9573 42.7495 44.5307 42.7495 44.04C42.7495 43.528 42.7922 43.1013 42.8775 42.76C42.7922 42.3973 42.7495 41.9707 42.7495 41.48C42.7495 40.968 42.7922 40.5413 42.8775 40.2C42.7922 39.8373 42.7495 39.4107 42.7495 38.92C42.7495 38.408 42.7922 37.9813 42.8775 37.64C42.7922 37.2773 42.7495 36.8507 42.7495 36.36C42.7495 35.848 42.7922 35.4213 42.8775 35.08H44.7975C44.8828 35.4213 44.9255 35.848 44.9255 36.36C44.9255 36.8507 44.8828 37.2773 44.7975 37.64C44.8828 37.9813 44.9255 38.408 44.9255 38.92C44.9255 39.4107 44.8828 39.8373 44.7975 40.2C44.8828 40.5413 44.9255 40.968 44.9255 41.48C44.9255 41.9707 44.8828 42.3973 44.7975 42.76C44.8828 43.1013 44.9255 43.528 44.9255 44.04C44.9255 44.5307 44.8828 44.9573 44.7975 45.32H45.4375C45.5228 45.6613 45.5655 46.088 45.5655 46.6C45.5655 47.0907 45.5228 47.5173 45.4375 47.88H46.3975C46.3122 47.5173 46.2695 47.0907 46.2695 46.6C46.2695 46.088 46.3122 45.6613 46.3975 45.32C46.3122 44.9573 46.2695 44.5307 46.2695 44.04C46.2695 43.528 46.3122 43.1013 46.3975 42.76C46.3122 42.3973 46.2695 41.9707 46.2695 41.48C46.2695 40.968 46.3122 40.5413 46.3975 40.2C46.3122 39.8373 46.2695 39.4107 46.2695 38.92C46.2695 38.408 46.3122 37.9813 46.3975 37.64C46.3122 37.2773 46.2695 36.8507 46.2695 36.36C46.2695 35.848 46.3122 35.4213 46.3975 35.08H48.9575C49.0428 35.4213 49.0855 35.848 49.0855 36.36C49.0855 36.8507 49.0428 37.2773 48.9575 37.64ZM55.37 45.32C55.4553 45.6613 55.498 46.088 55.498 46.6C55.498 47.0907 55.4553 47.5173 55.37 47.88C55.4553 48.2213 55.498 48.648 55.498 49.16C55.498 49.6507 55.4553 50.0773 55.37 50.44H60.49C60.5753 50.7813 60.618 51.208 60.618 51.72C60.618 52.2107 60.5753 52.6373 60.49 53H52.81C52.7247 52.6373 52.682 52.2107 52.682 51.72C52.682 51.208 52.7247 50.7813 52.81 50.44C52.7247 50.0773 52.682 49.6507 52.682 49.16C52.682 48.648 52.7247 48.2213 52.81 47.88C52.7247 47.5173 52.682 47.0907 52.682 46.6C52.682 46.088 52.7247 45.6613 52.81 45.32C52.7247 44.9573 52.682 44.5307 52.682 44.04C52.682 43.528 52.7247 43.1013 52.81 42.76C52.7247 42.3973 52.682 41.9707 52.682 41.48C52.682 40.968 52.7247 40.5413 52.81 40.2C52.7247 39.8373 52.682 39.4107 52.682 38.92C52.682 38.408 52.7247 37.9813 52.81 37.64C52.7247 37.2773 52.682 36.8507 52.682 36.36C52.682 35.848 52.7247 35.4213 52.81 35.08H60.49C60.5753 35.4213 60.618 35.848 60.618 36.36C60.618 36.8507 60.5753 37.2773 60.49 37.64H55.37C55.4553 37.9813 55.498 38.408 55.498 38.92C55.498 39.4107 55.4553 39.8373 55.37 40.2C55.4553 40.5413 55.498 40.968 55.498 41.48C55.498 41.9707 55.4553 42.3973 55.37 42.76H60.49C60.5753 43.1013 60.618 43.528 60.618 44.04C60.618 44.5307 60.5753 44.9573 60.49 45.32H55.37ZM74.7105 41.48C74.7105 41.9707 74.6678 42.3973 74.5825 42.76H73.3025C73.3878 43.1013 73.4305 43.528 73.4305 44.04C73.4305 44.5307 73.3878 44.9573 73.3025 45.32H74.5825C74.6678 45.6613 74.7105 46.088 74.7105 46.6C74.7105 47.0907 74.6678 47.5173 74.5825 47.88C74.6678 48.2213 74.7105 48.648 74.7105 49.16C74.7105 49.6507 74.6678 50.0773 74.5825 50.44H73.3025C73.3878 50.7813 73.4305 51.208 73.4305 51.72C73.4305 52.2107 73.3878 52.6373 73.3025 53H64.3425C64.2572 52.6373 64.2145 52.2107 64.2145 51.72C64.2145 51.208 64.2572 50.7813 64.3425 50.44C64.2572 50.0773 64.2145 49.6507 64.2145 49.16C64.2145 48.648 64.2572 48.2213 64.3425 47.88C64.2572 47.5173 64.2145 47.0907 64.2145 46.6C64.2145 46.088 64.2572 45.6613 64.3425 45.32C64.2572 44.9573 64.2145 44.5307 64.2145 44.04C64.2145 43.528 64.2572 43.1013 64.3425 42.76C64.2572 42.3973 64.2145 41.9707 64.2145 41.48C64.2145 40.968 64.2572 40.5413 64.3425 40.2C64.2572 39.8373 64.2145 39.4107 64.2145 38.92C64.2145 38.408 64.2572 37.9813 64.3425 37.64C64.2572 37.2773 64.2145 36.8507 64.2145 36.36C64.2145 35.848 64.2572 35.4213 64.3425 35.08H73.3025C73.3878 35.4213 73.4305 35.848 73.4305 36.36C73.4305 36.8507 73.3878 37.2773 73.3025 37.64H74.5825C74.6678 37.9813 74.7105 38.408 74.7105 38.92C74.7105 39.4107 74.6678 39.8373 74.5825 40.2C74.6678 40.5413 74.7105 40.968 74.7105 41.48ZM72.0225 42.76C71.9372 42.3973 71.8945 41.9707 71.8945 41.48C71.8945 40.968 71.9372 40.5413 72.0225 40.2C71.9372 39.8373 71.8945 39.4107 71.8945 38.92C71.8945 38.408 71.9372 37.9813 72.0225 37.64H66.9025C66.9878 37.9813 67.0305 38.408 67.0305 38.92C67.0305 39.4107 66.9878 39.8373 66.9025 40.2C66.9878 40.5413 67.0305 40.968 67.0305 41.48C67.0305 41.9707 66.9878 42.3973 66.9025 42.76H72.0225ZM72.0225 47.88C71.9372 47.5173 71.8945 47.0907 71.8945 46.6C71.8945 46.088 71.9372 45.6613 72.0225 45.32H66.9025C66.9878 45.6613 67.0305 46.088 67.0305 46.6C67.0305 47.0907 66.9878 47.5173 66.9025 47.88C66.9878 48.2213 67.0305 48.648 67.0305 49.16C67.0305 49.6507 66.9878 50.0773 66.9025 50.44H72.0225C71.9372 50.0773 71.8945 49.6507 71.8945 49.16C71.8945 48.648 71.9372 48.2213 72.0225 47.88Z" fill="#9A99FF"/>
</svg>
