<svg xmlns="http://www.w3.org/2000/svg"  viewBox="0 0 48 48" width="48px" height="48px" baseProfile="basic"><path d="M38,13.5v-2h-0.279C36.843,8.334,33.942,6,30.5,6H24h-6.5c-3.442,0-6.343,2.334-7.221,5.5H10v2	c0,2.779,1.523,5.204,3.774,6.5c-1.69,0.973-2.969,2.582-3.502,4.5H10v2c0,2.779,1.523,5.204,3.774,6.5	c-1.69,0.973-2.969,2.582-3.502,4.5H10v2c0,4.136,3.364,7.5,7.5,7.5s7.5-3.364,7.5-7.5V33v-1.418C26.371,33.065,28.326,34,30.5,34	c4.136,0,7.5-3.364,7.5-7.5v-2h-0.272c-0.533-1.918-1.812-3.527-3.502-4.5C36.477,18.704,38,16.279,38,13.5z"/><path fill="#e6db74" d="M17.5,18H24V5h-6.5C13.91,5,11,7.91,11,11.5v0C11,15.09,13.91,18,17.5,18z"/><path fill="#e6db74" d="M17.5,31H24V18h-6.5c-3.59,0-6.5,2.91-6.5,6.5v0C11,28.09,13.91,31,17.5,31z"/><path fill="#e6db74" d="M17.5,44L17.5,44c3.59,0,6.5-2.91,6.5-6.5V31h-6.5c-3.59,0-6.5,2.91-6.5,6.5v0	C11,41.09,13.91,44,17.5,44z"/><path fill="#e6db74" d="M24,18h6.5c3.59,0,6.5-2.91,6.5-6.5v0C37,7.91,34.09,5,30.5,5H24V18z"/><circle cx="30.5" cy="24.5" r="6.5" fill="#e6db74"/><path d="M24,19h-6.5c-4.136,0-7.5-3.364-7.5-7.5S13.364,4,17.5,4H24c0.552,0,1,0.448,1,1v13C25,18.552,24.552,19,24,19z M17.5,6	C14.467,6,12,8.467,12,11.5s2.467,5.5,5.5,5.5H23V6H17.5z"/><path d="M24,32h-6.5c-4.136,0-7.5-3.364-7.5-7.5s3.364-7.5,7.5-7.5H24c0.552,0,1,0.448,1,1v13C25,31.552,24.552,32,24,32z M17.5,19	c-3.033,0-5.5,2.467-5.5,5.5s2.467,5.5,5.5,5.5H23V19H17.5z"/><path d="M17.5,45c-4.136,0-7.5-3.364-7.5-7.5s3.364-7.5,7.5-7.5H24c0.552,0,1,0.448,1,1v6.5C25,41.636,21.636,45,17.5,45z M17.5,32	c-3.033,0-5.5,2.467-5.5,5.5s2.467,5.5,5.5,5.5s5.5-2.467,5.5-5.5V32H17.5z"/><path d="M30.5,19H24c-0.552,0-1-0.448-1-1V5c0-0.552,0.448-1,1-1h6.5c4.136,0,7.5,3.364,7.5,7.5S34.636,19,30.5,19z M25,17h5.5	c3.033,0,5.5-2.467,5.5-5.5S33.533,6,30.5,6H25V17z"/><path d="M30.5,32c-4.136,0-7.5-3.364-7.5-7.5s3.364-7.5,7.5-7.5s7.5,3.364,7.5,7.5S34.636,32,30.5,32z M30.5,19	c-3.033,0-5.5,2.467-5.5,5.5s2.467,5.5,5.5,5.5s5.5-2.467,5.5-5.5S33.533,19,30.5,19z"/></svg>
