<?xml version="1.0" encoding="utf-8"?><svg viewBox="0 0 50 50" xmlns="http://www.w3.org/2000/svg" xmlns:xlink="http://www.w3.org/1999/xlink"><style>:root>svg{display:none}:root>svg:target{display:block}</style><svg viewBox="0 0 50 50" id="git" xmlns="http://www.w3.org/2000/svg"><path d="M25 2C12.311 2 2 12.311 2 25s10.311 23 23 23 23-10.311 23-23S37.689 2 25 2zm0 2c11.607 0 21 9.393 21 21 0 .071-.005.142-.006.213a39.758 39.758 0 00-2.318-.149 59.326 59.326 0 00-4.903.061c.07-.49.12-.988.122-1.498.096-1.873-.532-3.625-1.555-5.172.247-.854.537-1.94.61-3.172.082-1.404-.04-2.961-1.167-4.013l-.289-.27H36.1c-2.683 0-4.52 1.123-5.643 2.014A15.026 15.026 0 0025 12a15.82 15.82 0 00-5.553 1.018C18.325 12.127 16.487 11 13.801 11h-.393l-.289.268c-1.098 1.02-1.2 2.534-1.13 3.931.06 1.233.333 2.353.575 3.248-1.04 1.578-1.664 3.375-1.664 5.153 0 .511.048 1.01.118 1.502-1.806-.084-3.416-.1-4.694-.055a39.49 39.49 0 00-2.318.148c0-.065-.006-.13-.006-.195C4 13.393 13.393 4 25 4zm-10.604 9.13c2.018.192 3.536 1.093 4.239 1.718l.469.414.578-.237C21.263 14.375 23.027 14 25 14c1.973 0 3.737.376 5.2 1.016l.585.257.479-.425c.703-.625 2.223-1.526 4.242-1.717.268.445.501 1.078.445 2.035-.067 1.146-.374 2.394-.605 3.135l-.15.482.298.408c.99 1.35 1.494 2.81 1.408 4.354l-.002.027v.028c0 2.495-.898 4.492-2.812 5.972C32.174 31.052 29.153 32 24.9 32c-4.252 0-7.275-.948-9.19-2.428-1.913-1.48-2.81-3.477-2.81-5.972 0-1.465.53-3.076 1.506-4.409l.293-.398-.14-.475c-.232-.788-.516-2.064-.573-3.216-.047-.96.18-1.565.41-1.971zM8.885 26.022c.706.01 1.516.048 2.328.088.077.312.166.619.273.918-3.307.07-5.781.403-7.306.688-.065-.5-.116-1.005-.145-1.516a44.845 44.845 0 014.85-.178zm32.23.016c2.133-.027 3.72.071 4.848.178-.029.503-.08 1-.143 1.494-1.58-.29-4.12-.622-7.513-.676.105-.293.193-.595.27-.9a64.2 64.2 0 012.538-.096zM11.912 28.02a9.029 9.029 0 002.576 3.134c1.54 1.192 3.544 2.024 5.989 2.469-.32.329-.611.69-.87 1.07l-.06-.052c.005-.007-.497.245-1.248.312S16.622 35 15.8 35c-1.225 0-1.765-.579-2.627-1.633a7.098 7.098 0 00-1.625-1.56c-.579-.406-1.073-.691-1.684-.793L9.783 31H9.7c-.466 0-.918.034-1.34.516-.21.24-.356.687-.261 1.064.094.378.333.61.547.752 1.366.911 1.608 2.715 2.464 4.318.8 1.594 2.527 2.35 4.291 2.35H18v4.803c-7.032-2.482-12.335-8.598-13.668-16.1 1.53-.288 4.095-.635 7.58-.683zm25.97.007c3.564.03 6.199.377 7.788.67C44.339 36.202 39.034 42.32 32 44.803V39.6c0-1.585-.52-3.332-1.426-4.79a7.52 7.52 0 00-.959-1.236c2.315-.457 4.217-1.275 5.698-2.42a9.004 9.004 0 002.57-3.127zM23.7 34.1h2.8c.813 0 1.68.647 2.375 1.765C29.57 36.983 30 38.485 30 39.6v5.798a21.078 21.078 0 01-10 0V39.6c0-1.091.468-2.589 1.209-3.711.741-1.123 1.677-1.79 2.49-1.79zm-11.39 1.18c.864.9 1.913 1.72 3.49 1.72.779 0 1.751.028 2.676-.055l.01-.002c-.122.35-.213.703-.29 1.057H15.4c-1.233 0-2.104-.446-2.505-1.248l-.008-.014-.006-.011c-.165-.306-.38-.916-.572-1.446z"/></svg><svg viewBox="0 0 50 50" id="telegram" xmlns="http://www.w3.org/2000/svg"><path d="M44.377 5.986c-.487.022-.961.157-1.389.328-.423.17-2.86 1.21-6.457 2.748a20314.52 20314.52 0 00-12.91 5.528c-9.272 3.972-18.383 7.88-18.383 7.88l.067-.025s-.55.184-1.108.573a3.078 3.078 0 00-.824.81 2.145 2.145 0 00-.357 1.432c.237 1.925 2.232 2.47 2.232 2.47l.008.004 8.902 3.047c.227.757 2.7 9.012 3.244 10.76.3.966.582 1.524.875 1.904.147.19.301.338.471.446.068.042.139.075.209.103h.004c.009.004.017.004.025.008l-.023-.006c.016.007.032.018.049.024.031.01.05.01.092.02 1.02.355 1.863-.306 1.863-.306l.035-.027 5.469-5.072 8.875 6.92.111.05c1.553.69 2.958.305 3.736-.328s1.084-1.449 1.084-1.449l.034-.086 6.521-33.99c.167-.76.19-1.418.033-2.012-.157-.594-.54-1.11-1.02-1.396a2.588 2.588 0 00-1.468-.358zm.053 2.034c.197-.01.344.013.39.04.047.028.067.024.112.192.044.167.068.52-.053 1.072l-.004.012-6.484 33.793c-.016.034-.15.347-.46.598-.314.256-.664.456-1.593.066l-9.705-7.568-.274-.215-.005.006-2.903-2.178 16.31-19.19A1 1 0 0038.976 13a1 1 0 00-.53.168L14.844 28.902 5.928 25.85s-.886-.493-.928-.836c-.002-.02-.013-.002.033-.07.046-.07.162-.185.307-.286.29-.202.62-.324.62-.324l.034-.012.033-.013s9.112-3.91 18.383-7.881c4.636-1.986 9.312-3.988 12.908-5.526 3.596-1.537 6.194-2.644 6.414-2.732.25-.1.5-.141.698-.15zM33.613 18.793L21.244 33.346l-.006.006a1 1 0 00-.054.072 1 1 0 00-.055.084 1 1 0 00-.131.385 1 1 0 000 .007l-1.611 7.246c-.027-.078-.046-.106-.075-.199v-.002a2314.72 2314.72 0 01-3.167-10.506l17.468-11.646zM22.641 35.73l2.222 1.668-3.265 3.028 1.043-4.696z"/></svg><svg viewBox="0 0 48 48" id="vk" xmlns="http://www.w3.org/2000/svg"><path d="M5.436 10.957c-2.242 0-3.949 2.204-3.33 4.371 1.609 5.649 3.995 11.18 7.556 15.53 3.561 4.349 8.378 7.501 14.537 8.126 2.05.208 3.819-1.463 3.819-3.49v-4.047c0-.252.172-.432.369-.437l.084-.002c.707 0 2.16.886 3.437 2.263 1.277 1.378 2.406 3.083 2.95 4.028v.002a3.438 3.438 0 002.978 1.71h4.873c2.427.003 4.051-2.74 2.863-4.863-1.864-3.335-5.585-6.634-7.445-8.279 3.409-3.743 5.668-7.822 6.67-10.527.756-2.044-.803-4.344-3-4.344h-3.479c-1.512 0-2.921.737-3.498 1.916-2.707 5.548-5.12 7.585-6.82 9.053v-7.528c0-1.877-1.558-3.426-3.43-3.43L18.48 11c-1.94-.002-3.143 2.393-1.981 3.947l1.176 1.574.002.004c.201.267.308.586.308.914v.002l.024 6.278c-2.423-2.556-5.055-7.968-5.85-10.383v-.002a3.465 3.465 0 00-3.271-2.367h-.002l-3.447-.01h-.002zm0 3l3.443.01a.43.43 0 01.43.304c.986 3 3.577 8.714 6.863 11.915.853.83 2.105 1 3.076.605.97-.394 1.762-1.416 1.762-2.615v-.002l-.026-6.735c0-.98-.32-1.934-.91-2.716l-.002-.004-.537-.717 5.03.008c.262 0 .435.171.435.43v7.603c0 2.435 3.066 3.834 4.91 2.242h.002c1.69-1.46 4.68-4.065 7.604-10.055.067-.138.008-.232.802-.232h3.479c.202 0 .262.096.185.303-.85 2.298-3.021 6.306-6.24 9.773-.992 1.07-.951 2.835.17 3.828 1.758 1.555 5.595 5.124 7.041 7.71.132.236.033.4-.242.4h-4.875a.427.427 0 01-.379-.21c-.65-1.129-1.841-2.944-3.348-4.57-1.506-1.625-3.3-3.224-5.638-3.224-.067 0-.12 0-.162.002h-.006c-1.862.052-3.285 1.632-3.285 3.437v4.047c0 .311-.24.534-.516.506-5.324-.54-9.336-3.156-12.52-7.043C8.8 25.07 6.526 19.895 4.99 14.506c-.086-.301.099-.549.446-.549z"/></svg><svg viewBox="0 0 50 50" id="whatsapp" xmlns="http://www.w3.org/2000/svg"><path d="M25 2C12.31 2 2 12.31 2 25c0 4.08 1.119 7.886 2.984 11.209L2.037 46.73a1 1 0 001.203 1.24l10.97-2.718C17.436 46.972 21.094 48 25 48c12.69 0 23-10.31 23-23S37.69 2 25 2zm0 2c11.61 0 21 9.39 21 21s-9.39 21-21 21c-3.722 0-7.208-.97-10.238-2.666a1 1 0 00-.729-.098l-9.607 2.381 2.576-9.191a1 1 0 00-.1-.78A20.88 20.88 0 014 25C4 13.39 13.39 4 25 4zm-8.357 9c-.641 0-1.557.238-2.309 1.049-.452.487-2.334 2.32-2.334 5.545 0 3.361 2.331 6.262 2.613 6.635h.002v.001a31.669 31.669 0 003.004 3.684c1.804 1.899 4.34 4.093 7.486 5.436 1.45.617 2.593.99 3.46 1.261 1.605.504 3.067.428 4.165.266.823-.121 1.727-.516 2.622-1.082.894-.566 1.771-1.27 2.158-2.34a8.25 8.25 0 00.469-2.059 4.72 4.72 0 00.01-.787c-.02-.238 0-.42-.221-.785-.466-.764-.993-.784-1.543-1.056a183.29 183.29 0 00-2.05-.993c-.871-.415-1.626-.783-2.091-.949-.294-.106-.652-.258-1.17-.199-.517.059-1.029.432-1.326.873-.282.418-1.418 1.758-1.764 2.152-.004-.002.026.011-.111-.056-.428-.212-.952-.392-1.727-.801a14.283 14.283 0 01-2.804-1.947v-.002c-1.579-1.39-2.685-3.135-3.034-3.721.024-.028-.002.006.047-.043l.002-.002c.357-.351.673-.77.94-1.078.378-.436.545-.82.726-1.18.361-.716.16-1.503-.049-1.918v-.002c.015.029-.112-.252-.25-.576l-.5-1.195c-.374-.898-.792-1.906-1.04-2.496v-.002c-.293-.695-.69-1.196-1.208-1.438-.518-.241-.975-.173-.994-.174h-.002A26.2 26.2 0 0016.643 13zm0 2c.385 0 .765.005 1.084.02.327.016.307.017.244-.012-.064-.03.023-.04.209.402.243.578.663 1.59 1.039 2.49.188.451.363.874.504 1.205.14.332.216.517.304.694v.002l.002.002c.087.17.08.061.05.12-.212.42-.24.522-.454.768-.325.375-.657.792-.832.965-.154.151-.43.386-.604.846-.173.46-.092 1.093.186 1.564.37.629 1.59 2.613 3.484 4.282a16.35 16.35 0 003.194 2.216c.888.469 1.611.743 1.773.823.385.19.805.338 1.293.279.489-.059.91-.355 1.178-.658l.002-.002c.357-.405 1.417-1.615 1.926-2.361.021.007.014.001.183.062v.002h.002c.077.027 1.044.46 1.906.871.863.41 1.738.838 2.022.979.41.203.604.335.654.336a2.35 2.35 0 01-.006.328 6.365 6.365 0 01-.357 1.552c-.105.292-.654.893-1.346 1.33-.692.438-1.534.748-1.846.793-.937.139-2.05.189-3.273-.195a33.421 33.421 0 01-3.273-1.193c-2.776-1.184-5.135-3.198-6.82-4.973a29.716 29.716 0 01-1.999-2.338c-.48-.623-.688-.948-.863-1.178l-.002-.001c-.31-.41-2.207-3.05-2.207-5.426 0-2.516 1.168-3.503 1.8-4.184.333-.358.696-.41.843-.41z"/></svg></svg>